<?xml version="1.0" encoding="UTF-8"?>
<!DOCTYPE svg PUBLIC "-//W3C//DTD SVG 1.1//EN" "http://www.w3.org/Graphics/SVG/1.1/DTD/svg11.dtd">
<!-- Creator: CorelDRAW -->
<svg xmlns="http://www.w3.org/2000/svg" xml:space="preserve" width="297mm" height="210mm" version="1.1" style="shape-rendering:geometricPrecision; text-rendering:geometricPrecision; image-rendering:optimizeQuality; fill-rule:evenodd; clip-rule:evenodd"
viewBox="0 0 29700 21000"
 xmlns:xlink="http://www.w3.org/1999/xlink"
 xmlns:xodm="http://www.corel.com/coreldraw/odm/2003">
 <defs>
  <style type="text/css">
   <![CDATA[
    .fil6 {fill:#FEFEFE}
    .fil4 {fill:#FFF212}
    .fil5 {fill:#ED3237}
    .fil0 {fill:#3D3A57}
    .fil3 {fill:#FEFEFE;fill-rule:nonzero}
    .fil1 {fill:#FFF212;fill-rule:nonzero}
    .fil2 {fill:#ED3237;fill-rule:nonzero}
   ]]>
  </style>
 </defs>
 <g id="Camada_x0020_1">
  <metadata id="CorelCorpID_0Corel-Layer"/>
  <g id="_2542272505600">
   <path class="fil0" d="M12208.06 3808.4c326.14,58.16 623.78,382.01 754.43,656.69 341.94,-24.38 487.38,-72.24 828.44,114.6 84.74,46.43 138.79,2.61 250.12,-11.49 308.97,-39.14 507.72,40.97 742.92,198.62 37.4,25.07 248.07,-165.43 286.56,-189.29 613.9,-380.6 1198.51,-168.2 1202.99,-170.43 60.47,-30.24 472.86,263.02 546.76,336.19 223.46,221.29 309.82,446.09 457.06,710.3 378.96,-669.23 584.9,-931.68 1375.56,-1048.55 43.97,-6.5 170.46,-230.12 236.24,-303.82 592.19,-663.47 1506.5,-371.32 1778.05,442.21 98.57,295.33 20.05,73.64 513.82,13.48 801.97,-97.73 1459.82,480.87 1644.41,1213.51 156.57,684.89 64.52,1072.27 -33.03,1739 -21.24,145.21 159.51,96.12 351.37,156.77 417.9,132.1 753.72,477.88 1019.11,812.28 185.28,233.48 158.76,-40.44 439.37,-295.56 692.68,-629.79 1830.41,-366.01 2640.48,-154.19 1191.1,320.41 1214.72,1690.89 261,2256.15 44.38,348.6 81.88,420.96 -16.95,789.56 429.24,381.39 577.34,758.88 447.97,1333.79 -373.55,1100.82 -1413.17,1327.92 -2459.7,1214.85 -723.58,-78.18 -767.33,-264.78 -1200.31,-769.94 -404.33,277.58 -1301.1,731.52 -1784.52,838.24 -312.89,69.09 -590.29,77.52 -908.95,69.91 -453.65,-16.96 -615.88,-219.34 -700.6,-229.57 -74.07,-8.95 -8.35,221.04 141.22,325.9 338.29,237.15 601.58,253.64 612.59,789.46l3.39 164.9c-16.14,439.81 -262.05,678.99 -587.31,929.8 -34.98,26.98 -50.38,34.83 -71.8,71.09 -19.12,555.39 -158.56,1065.8 -796.44,1161.81 -810.26,10.44 -716.86,-554.57 -997.71,-770.18 -161.84,127.35 -181.4,460.44 -753.5,791.78 -1112.37,602.15 -1607.82,54.36 -1680.08,65.38 -92.45,14.1 -39.52,161.16 -670.72,142.8 -351.46,-10.21 -471.37,35.1 -784.31,56.41 -392.79,9.32 -516.93,-73.53 -780.21,-355.96 -671.34,346.94 -1052.79,561.01 -1747.37,134.06 -127.08,-78.11 -138.2,99.39 -444.24,157.73 -402.62,55.24 -1360.92,1.96 -1705.33,-214.75 -429.18,-270.05 -287.91,-805.53 -711.52,-413.85 -251.18,232.26 -244.89,468.39 -741.22,457.51 -664.89,-14.58 -885.32,-633.58 -861.44,-1205.78 -550.46,-335.02 -861.59,-843.96 -541.96,-1477.29 223.32,-442.52 676.22,-418.83 693.35,-495.93 49.79,-224.31 -12.85,-244.45 142.67,-516.59 36.86,-64.52 196.85,-287.37 29.93,-355.5 -43.55,-17.77 -315.8,70.22 -573.72,-4.88 -194.3,-56.57 -135.32,49.41 -220.48,265.34 -380.2,964.13 -1136.56,686.31 -1838.2,275.51 -471.41,335.45 -979.75,422.52 -1506.56,134.73 -223.77,-122.26 -345.49,-284.25 -475.25,-496.44 -416.88,710.53 -1280.34,791.38 -1892.54,295.71 1.12,1.41 -214.89,-212.27 -282.04,-351.94 -406.5,-845.6 -396.78,-2407.95 -144.98,-3309.35 200.5,-698.72 501.59,-1529.2 1254.11,-1776.72 512.93,-160.87 1663.36,-467.19 2169.1,-299.64 429.27,142.21 590.01,491.65 740.09,883.02 134.97,-250.48 385.25,-758.22 644.9,-856.9 143.83,-54.69 105.65,19.45 25.98,-255.33 -407.2,-1404.32 -281.84,-3576.08 1589.96,-3658.44l116.06 -5.1c1082.62,-20.88 1292.31,730.41 1434.15,742.41 140.28,11.88 385.96,-278.73 1111.94,-79.37l96.03 26.37c248.33,-250.95 284.26,-533.05 755.39,-680.5 202.11,-63.25 371.12,-44.75 575.47,-14.59z"/>
   <path class="fil1" d="M7869.09 7803.89c-40.96,30.22 -81.92,50.81 -128.35,60.42 -49.14,8.25 -98.3,9.62 -144.73,1.38 -46.43,-8.24 -90.12,-24.73 -133.81,-52.19 -40.98,-27.48 -76.47,-59.06 -106.51,-98.89 -40.96,-54.94 -76.47,-116.74 -103.78,-185.41 -24.58,-68.68 -49.15,-138.72 -68.26,-207.39 -46.44,-190.91 -76.48,-379.08 -87.4,-565.87 -8.19,-237.6 -13.65,-475.22 -16.39,-712.83 -2.72,-237.61 21.85,-475.21 71,-708.69 19.12,-75.54 38.24,-151.09 65.55,-225.26 21.85,-74.15 57.35,-145.58 98.32,-211.5 49.15,-81.04 114.69,-144.21 196.61,-190.91 109.24,-65.93 223.94,-114 344.1,-148.34 120.16,-31.59 240.32,-49.44 360.48,-57.68 125.63,-10.99 251.24,-8.24 374.13,10.98 125.63,16.48 243.06,53.57 352.3,111.26 40.96,20.61 76.45,48.07 106.49,76.91 38.24,41.2 65.55,87.9 81.94,142.85 16.38,54.93 21.84,111.24 16.38,170.3 0,57.68 -13.65,114 -38.24,168.93 -21.84,54.94 -49.14,105.76 -90.12,151.09 -62.8,72.78 -139.28,118.11 -226.65,137.34 -62.82,12.36 -125.63,16.48 -191.16,12.36 -62.83,-4.12 -128.36,-5.5 -193.91,-5.5 -35.49,-1.37 -73.73,1.38 -106.51,5.5 -35.49,5.49 -68.26,17.86 -103.77,35.71 -43.68,24.72 -68.27,64.55 -76.47,116.74 -5.45,23.35 -8.18,50.82 -8.18,82.41 2.73,31.59 10.93,53.56 30.04,64.55 13.65,4.12 38.22,6.86 71,6.86 35.5,0 57.34,-2.74 71.01,-6.86 76.47,-2.75 152.92,-8.24 234.85,-15.11 79.19,-5.49 155.66,-4.12 232.13,5.5 40.97,5.49 81.93,19.23 122.89,37.08 40.96,16.48 76.47,42.57 103.77,79.66 43.7,52.19 60.08,119.49 57.35,200.53 0,57.68 -2.72,118.11 -10.92,182.66 -5.47,61.8 -30.04,115.38 -60.08,164.82 -30.04,41.2 -65.55,72.78 -109.24,92.02 -40.96,19.23 -84.65,34.33 -128.35,43.95 -81.93,16.48 -161.12,21.98 -240.32,19.22 -79.2,-2.74 -158.39,4.13 -237.59,19.24 -30.04,6.87 -62.81,15.11 -98.32,27.46 -30.04,11 -57.33,30.22 -79.18,53.56 -19.12,20.61 -30.04,45.33 -38.23,74.18 -8.2,26.09 -10.93,53.56 -8.2,78.28 13.65,100.26 19.12,203.28 24.57,306.28 5.47,103.02 2.74,206.02 -10.92,307.66 -8.2,65.92 -21.84,130.48 -51.88,195.03 -27.32,61.8 -65.55,111.25 -117.44,149.71zm-38.23 -3035.34c-2.73,21.98 8.19,37.09 27.31,42.57 21.85,5.5 38.24,0 51.88,-17.85 10.93,-13.73 16.4,-24.72 21.86,-38.45 2.73,-13.74 0,-24.72 -13.66,-31.59 -13.65,-10.98 -32.77,-10.98 -51.88,0 -19.12,9.61 -32.77,24.72 -35.51,45.32zm-548.91 1109.75c2.74,13.74 10.93,23.35 21.85,26.09 13.65,2.76 27.3,2.76 38.22,1.37 8.2,-5.48 19.12,-12.35 30.06,-21.96 8.18,-12.36 10.92,-24.73 8.18,-38.45 -2.73,-13.74 -2.73,-37.09 -5.45,-70.06 2.72,-32.96 8.19,-68.68 10.92,-107.13 0,-38.46 2.73,-74.16 2.73,-107.13 2.72,-34.33 5.46,-59.05 8.19,-71.42 13.65,-90.65 30.04,-175.8 57.35,-259.58 5.46,-16.48 13.65,-38.46 30.04,-64.55 13.65,-27.47 30.04,-54.93 49.16,-86.53 16.38,-28.83 35.49,-56.31 54.61,-79.66 16.39,-21.97 32.77,-38.45 46.43,-49.44 13.65,-5.49 24.57,-13.73 38.24,-24.73 10.92,-10.98 21.84,-21.98 32.76,-35.7 19.12,-1.38 32.77,-9.62 46.44,-27.47 10.92,-15.11 10.92,-32.96 -2.75,-49.44 -13.65,-17.87 -32.76,-21.98 -57.33,-11 -24.59,12.37 -43.71,27.48 -65.55,41.22 -8.2,8.24 -19.12,15.1 -30.04,20.59 -8.2,6.87 -19.12,12.36 -27.32,19.23 -10.92,12.35 -30.04,26.09 -38.23,38.46 -13.65,10.98 -27.3,26.09 -38.22,39.83 -62.82,83.78 -111.98,168.93 -144.75,259.58 -5.47,12.37 -10.92,34.33 -16.39,64.55 -8.18,30.21 -10.92,63.19 -19.11,96.14 -5.46,32.96 -10.93,64.55 -19.11,96.14 -5.47,30.21 -8.19,49.45 -8.19,61.82 -2.74,15.1 -2.74,37.07 -2.74,68.67 -2.73,31.59 0,64.54 0,100.26 -2.73,37.07 -2.73,71.41 -2.73,104.37 0,32.98 0,54.94 2.73,65.93zm3421.82 1841.81c-109.23,34.33 -218.47,56.3 -335.89,65.91 -117.43,8.24 -229.39,-6.86 -338.63,-41.19 -152.94,-46.7 -286.75,-134.61 -401.46,-260.96 -57.33,-63.19 -106.49,-138.71 -147.45,-223.88 -38.24,-85.15 -68.28,-171.68 -92.87,-260.96 -38.22,-155.19 -51.88,-314.51 -49.15,-477.95 0,-162.07 21.86,-324.13 57.35,-483.45 30.04,-134.61 76.47,-262.34 142,-380.45 68.28,-118.11 150.2,-222.5 245.79,-310.41 79.2,-74.16 169.32,-131.85 264.91,-178.54 98.3,-45.33 196.61,-75.55 297.65,-83.79 90.12,-10.98 182.98,-1.37 275.83,21.98 92.85,24.72 177.51,61.81 256.71,111.26 43.69,28.83 87.38,59.05 122.89,93.39 38.23,32.96 76.47,74.16 103.76,119.48 40.97,70.06 71.01,151.08 87.4,238.99 19.11,86.53 24.58,174.42 19.11,259.59 -2.72,105.74 -24.57,211.5 -65.54,320 -38.22,107.13 -92.85,196.41 -166.58,265.08 -27.31,30.22 -60.08,54.94 -95.59,72.8 -32.76,19.22 -71,35.7 -106.49,48.07 -60.08,19.22 -125.63,35.7 -188.44,49.44 -62.82,13.73 -125.62,19.23 -191.16,13.73 -46.43,-1.37 -90.12,-6.87 -133.82,-15.11 -40.96,-9.61 -81.93,-23.34 -122.89,-46.69 2.73,31.59 13.65,63.17 24.57,92.02 10.93,28.85 24.59,53.56 46.43,76.91 24.58,21.98 51.89,38.46 87.4,46.7 32.76,6.87 68.27,8.24 101.04,4.12 68.27,-4.12 136.53,-16.47 199.36,-37.08 68.27,-21.98 139.27,-39.83 204.81,-52.19 30.04,-8.24 57.35,-10.99 87.39,-13.74 27.31,-2.74 54.62,1.37 81.92,12.36 43.71,19.23 79.2,50.83 106.51,92.03 27.32,42.56 46.43,89.28 62.81,141.45 10.92,52.2 19.12,107.13 16.39,164.83 0,57.67 -8.2,112.62 -21.84,166.19 -13.67,41.19 -30.04,79.65 -54.63,114 -24.57,34.32 -51.89,64.54 -79.2,92.02 -43.69,42.56 -92.84,79.65 -144.73,111.24 -46.43,32.96 -101.04,57.69 -155.67,72.8zm-434.2 -2424.15c10.92,9.61 24.57,12.35 35.49,9.61 13.66,-2.74 24.59,-10.98 35.51,-19.22 8.19,-9.62 13.65,-19.23 13.65,-31.6 0,-10.98 -5.46,-20.59 -13.65,-28.83 -13.67,-8.24 -24.59,-11 -38.24,-8.24 -10.92,2.74 -21.84,9.61 -30.04,17.85 -10.92,9.61 -19.11,20.6 -19.11,32.96 0,10.99 5.46,20.6 16.39,27.47zm-680 645.52c0,13.74 2.73,24.72 10.93,32.96 8.19,5.5 19.11,9.62 27.29,8.25 10.94,1.37 21.86,-2.75 32.78,-9.62 10.93,-6.87 19.12,-17.85 24.58,-30.22 8.19,-34.33 19.11,-64.55 27.31,-97.5 10.92,-30.22 21.84,-61.81 35.49,-90.65 8.2,-11 19.12,-31.59 38.24,-54.94 19.12,-26.1 35.51,-52.19 54.62,-79.67 21.85,-26.09 43.69,-52.19 62.81,-74.17 16.39,-21.96 32.77,-38.46 46.43,-48.07 10.92,-2.74 24.57,-12.35 38.24,-27.46 8.18,-8.24 27.29,-20.6 54.61,-31.6 2.72,0 5.47,-2.74 13.65,-6.85 5.47,-6.87 10.92,-6.87 13.66,-4.13 19.12,5.5 38.24,-4.13 51.88,-27.48 16.4,-24.71 13.65,-43.94 -8.19,-56.3 -8.2,-6.87 -21.85,-8.24 -38.24,-5.5 -19.11,2.76 -32.76,5.5 -43.68,11 -19.12,9.61 -38.24,20.59 -54.63,28.84 -19.1,10.98 -35.49,20.59 -49.14,37.07 -5.47,5.5 -13.67,13.74 -30.06,26.11 -13.65,9.61 -24.57,16.48 -30.04,20.6 -2.72,5.49 -13.65,15.1 -27.3,31.59 -19.11,13.72 -32.78,31.59 -43.7,49.44 -13.65,17.85 -27.3,34.34 -40.96,52.19 -13.65,15.11 -21.85,26.09 -27.3,32.96 -10.94,15.11 -21.86,35.72 -38.24,63.18 -16.39,26.1 -32.78,56.32 -46.43,87.9 -10.92,31.59 -24.57,61.81 -35.49,90.65 -16.39,30.22 -19.12,53.57 -19.12,71.42zm690.92 57.69c-8.2,34.33 -5.47,60.43 2.73,83.78 10.92,23.35 27.31,41.2 46.43,53.57 19.11,13.72 43.69,20.59 71,23.34 27.31,4.12 54.61,1.38 84.65,-8.23 32.78,-13.74 62.82,-34.35 87.39,-63.19 24.59,-27.47 49.16,-60.44 68.28,-96.14 13.65,-35.71 16.39,-68.67 8.19,-98.89 -5.47,-30.21 -21.84,-54.93 -43.7,-76.91 -21.85,-19.24 -49.16,-30.22 -81.93,-32.96 -30.04,-4.13 -60.07,5.48 -90.11,27.46 -30.04,23.35 -60.08,50.82 -90.12,81.04 -27.32,31.59 -51.89,67.29 -62.81,107.13zm2007.21 -600.21c-38.23,17.87 -87.39,30.22 -144.74,37.09 -57.34,5.5 -117.42,4.13 -174.77,-2.74 -57.35,-8.24 -111.97,-21.98 -166.59,-42.59 -54.61,-21.97 -101.04,-46.69 -131.08,-79.65 -32.77,-31.59 -57.36,-70.04 -76.47,-115.37 -19.12,-45.32 -35.5,-93.41 -38.22,-142.84 -5.47,-49.44 -2.75,-100.26 2.72,-152.46 10.92,-52.19 27.32,-98.89 57.36,-145.58 27.29,-53.57 65.53,-101.63 114.69,-145.59 43.69,-43.95 92.84,-78.28 144.74,-103 46.42,-24.73 98.3,-39.84 152.93,-43.95 54.61,-4.13 109.23,0 161.12,13.73 30.04,6.87 57.35,19.22 87.39,32.96 27.3,15.11 57.34,31.59 84.65,48.07 38.24,24.72 71,54.93 103.79,90.65 32.76,35.71 60.08,79.65 73.72,124.98 13.65,30.21 21.85,65.93 24.58,104.38 2.74,38.46 0,75.55 -5.46,111.26 -13.65,85.15 -40.96,164.81 -92.84,241.72 -51.9,79.67 -109.24,135.98 -177.52,168.93zm-333.18 -732.04c-2.72,20.6 2.75,32.96 16.39,35.7 10.93,2.76 24.59,-1.37 35.51,-9.61 16.38,-9.61 27.3,-20.6 35.5,-34.33 10.92,-12.36 10.92,-24.73 2.72,-32.97 -16.37,-21.98 -35.49,-27.46 -54.61,-13.74 -19.12,12.37 -32.76,31.61 -35.51,54.95zm-270.35 418.9c10.92,23.34 24.58,31.58 46.43,26.1 21.84,-6.87 35.5,-21.98 43.69,-45.33 8.19,-12.36 8.19,-24.71 5.46,-35.71 -2.72,-12.35 -2.72,-26.09 0,-41.2 5.46,-26.1 16.39,-61.8 27.32,-108.5 13.65,-45.32 32.76,-75.54 51.88,-87.91 30.04,-13.73 40.96,-35.71 30.04,-59.06 -13.65,-24.72 -32.77,-30.22 -62.81,-13.72 -8.19,5.48 -21.85,16.48 -32.78,30.21 -13.65,15.11 -30.04,32.96 -40.96,53.57 -10.92,20.59 -21.84,42.57 -32.77,61.8 -8.19,19.22 -13.65,34.33 -16.39,46.7 -2.72,16.48 -8.19,45.32 -16.37,86.52 -8.2,39.83 -10.92,70.05 -2.74,86.53zm562.57 2582.09c-21.84,21.98 -54.62,38.46 -92.86,48.07 -35.49,11 -73.73,19.24 -114.69,21.98 -40.96,2.74 -79.2,2.74 -120.16,-5.5 -38.23,-5.48 -71,-16.48 -95.59,-31.59 -35.49,-19.22 -62.8,-46.69 -90.12,-76.91 -24.57,-32.96 -51.88,-65.93 -71,-101.63 -49.16,-78.28 -84.65,-166.19 -109.24,-262.34 -21.84,-94.76 -43.68,-190.9 -57.35,-288.42 -19.1,-151.08 -27.3,-307.65 -24.57,-462.86 2.73,-156.56 24.57,-309.02 65.55,-455.97 16.37,-50.83 30.04,-98.89 49.16,-144.22 19.1,-48.07 46.41,-87.91 81.92,-124.98 0,0 2.73,-4.13 2.73,-4.13 54.61,-85.15 122.88,-148.32 207.55,-185.41 21.84,-9.62 51.88,-15.11 92.84,-16.48 38.24,-2.75 79.2,-2.75 120.16,1.37 43.69,4.12 84.67,9.61 122.89,19.22 38.24,9.63 65.55,20.61 84.67,31.59 10.92,5.5 24.57,16.5 40.96,32.97 19.12,15.11 35.51,32.96 54.61,54.94 13.66,19.22 30.04,37.09 43.7,56.31 10.93,17.86 21.85,34.34 30.04,46.69 21.85,63.19 40.96,125 51.89,189.54 19.11,65.93 24.58,131.85 32.76,200.52 2.75,111.26 2.75,223.89 -10.92,337.88 -10.92,115.37 -27.3,226.62 -38.23,340.61 -16.38,93.39 -27.3,189.54 -46.42,281.56 -13.66,94.77 -40.96,184.05 -73.74,270.57 -16.38,39.83 -35.5,82.41 -57.34,124.99 -21.86,39.83 -46.43,75.53 -79.2,101.63zm-344.1 -1898.11c-16.38,1.37 -27.3,6.87 -35.49,16.48 -8.2,10.98 -13.67,21.98 -13.67,34.33 -2.72,11 0,21.98 8.2,30.22 5.47,9.62 16.39,13.74 32.76,12.37 16.4,0 27.32,-5.5 35.51,-15.11 8.2,-10.98 8.2,-21.98 10.93,-34.35 2.72,-10.98 0,-21.96 -5.46,-30.2 -5.47,-9.62 -19.12,-13.74 -32.78,-13.74zm-245.77 885.88c16.37,12.36 32.76,12.36 54.61,-1.38 19.12,-12.35 24.58,-28.83 24.58,-52.18 0,0 0,-61.82 0,-61.82 0,-9.61 -2.74,-24.72 -5.46,-45.31 2.72,-20.61 2.72,-42.58 2.72,-65.93 -2.72,-23.35 -2.72,-45.33 -2.72,-65.93 0,-20.59 2.72,-35.7 2.72,-43.94 0,-9.63 0,-32.98 5.47,-70.06 2.73,-37.07 5.46,-59.05 10.92,-68.67 5.46,-20.6 16.39,-54.94 35.5,-101.64 13.66,-48.06 30.04,-79.65 46.43,-93.39 16.39,-13.73 21.84,-26.1 21.84,-39.82 -2.72,-13.74 -5.45,-24.74 -13.65,-31.59 -8.19,-9.63 -19.11,-13.74 -32.76,-13.74 -16.39,1.37 -30.04,8.24 -43.71,23.35 -13.65,17.85 -27.3,46.69 -46.41,82.41 -16.39,37.07 -27.32,78.28 -43.71,120.85 -10.92,42.58 -19.11,85.17 -27.29,126.37 -10.94,41.19 -10.94,74.17 -10.94,97.52 0,9.61 -2.73,26.08 -2.73,49.43 -2.73,23.35 -2.73,48.07 -2.73,72.8 -2.72,24.72 0,49.44 0,72.79 0,23.35 2.73,39.83 5.46,49.45 2.74,5.48 5.47,15.11 5.47,30.22 8.19,13.72 10.92,24.72 16.39,30.21zm1884.31 1025.97c-24.57,13.72 -51.88,26.09 -87.38,32.96 -35.5,6.87 -71.01,9.61 -109.23,9.61 -32.79,0 -68.28,-6.87 -103.79,-17.85 -30.04,-9.61 -57.33,-23.35 -76.45,-41.21 -43.71,-38.46 -81.94,-82.4 -114.71,-134.59 -30.04,-50.82 -57.35,-107.13 -79.2,-166.19 -40.96,-116.74 -73.72,-237.61 -92.84,-363.96 -19.12,-126.37 -32.77,-251.34 -43.69,-377.71 -13.66,-168.93 -16.39,-341.99 -5.47,-513.67 10.92,-174.43 40.96,-341.99 90.12,-502.69 13.65,-39.82 27.31,-81.02 43.69,-119.48 16.39,-35.71 35.51,-70.04 60.08,-103.01 2.74,-2.75 2.74,-5.49 2.74,-8.24 49.16,-97.52 117.42,-166.2 199.36,-212.89 27.3,-13.72 60.08,-23.35 98.3,-27.46 40.97,-4.13 79.19,-4.13 122.9,1.37 40.96,4.13 81.92,10.98 120.16,21.98 40.96,12.35 73.73,28.84 98.31,46.69 8.18,6.87 19.12,20.61 35.5,38.46 16.39,17.85 30.04,38.45 46.43,60.43 16.37,21.98 30.04,42.57 43.69,61.81 13.66,19.22 19.11,35.71 24.58,46.69 8.2,15.11 16.38,30.22 19.12,46.7 5.45,15.11 8.18,32.96 10.92,49.45 71,-67.3 144.73,-126.37 229.4,-177.19 65.53,-41.2 136.53,-67.29 215.73,-72.78 81.92,-6.87 155.67,5.49 223.94,38.45 51.89,26.09 98.32,64.55 142.01,114 43.69,49.44 76.47,105.76 95.58,168.93 19.11,46.7 30.04,96.15 32.77,148.33 2.73,52.19 5.46,103.02 0,153.83 -2.73,50.82 -10.92,100.27 -19.12,148.34 -8.19,49.44 -21.84,96.13 -43.7,141.46 -24.57,64.56 -60.08,115.37 -106.5,148.34 -35.5,28.83 -76.47,41.2 -125.62,35.7 -60.08,-5.48 -120.16,-17.85 -180.24,-34.33 -60.08,-17.85 -117.43,-23.35 -180.24,-12.37 -40.96,5.5 -76.47,26.11 -109.24,61.81 -35.49,37.08 -62.8,75.54 -87.39,116.75 0,6.87 -2.73,16.48 -10.92,28.83 -10.93,13.74 -19.12,28.85 -30.04,45.33 -8.18,16.48 -13.65,31.58 -16.38,46.69 -5.47,15.11 -8.19,26.11 -8.19,35.72 -8.2,67.3 -21.85,153.82 -35.51,258.21 -13.65,107.13 -32.77,212.89 -57.34,317.26 -24.59,105.76 -54.63,200.52 -92.86,287.06 -38.24,86.52 -84.65,144.21 -139.28,174.43zm-185.69 -2281.32c0,21.98 8.19,32.98 27.3,34.35 19.11,1.37 30.04,-5.5 43.7,-20.61 16.38,-15.11 21.85,-30.21 21.85,-48.06 0,-17.85 -8.2,-30.22 -21.85,-35.72 -21.84,-9.61 -40.96,-5.48 -54.63,11 -16.37,16.48 -21.84,37.08 -16.37,59.04zm-412.38 949.06c13.67,16.49 32.78,20.61 57.35,9.62 24.59,-10.99 38.24,-27.47 40.97,-52.19 0,-5.5 0,-19.23 0,-39.83 0,-20.6 0,-42.58 0,-64.56 0,-24.72 0,-46.69 0,-67.3 0,-20.59 0,-34.33 0,-39.83 8.19,-60.43 16.39,-120.86 21.84,-179.91 8.2,-59.06 21.86,-118.13 35.51,-177.17 13.65,-42.59 30.04,-81.04 49.16,-118.13 16.39,-38.46 40.96,-70.04 68.27,-93.39 10.92,-8.24 21.85,-15.11 32.77,-19.24 10.92,-5.48 16.39,-15.1 19.12,-28.83 5.46,-32.97 -8.2,-50.82 -38.24,-53.56 -27.31,-4.13 -51.88,5.48 -73.73,26.09 -49.16,39.82 -87.39,92.02 -114.7,153.82 -5.46,12.37 -10.93,31.59 -19.12,57.69 -8.18,27.46 -16.38,54.94 -24.57,86.53 -8.2,30.21 -13.65,57.69 -19.12,85.15 -5.47,26.1 -10.92,45.32 -10.92,57.69 -2.73,10.98 -8.2,38.46 -10.92,82.4 -2.73,41.21 -8.2,68.67 -10.93,82.41 -8.19,38.45 -10.92,76.91 -8.19,116.74 5.45,41.21 2.72,78.3 -10.92,114 -5.47,9.62 -5.47,19.23 0,31.6 5.45,10.98 10.92,21.96 16.37,30.2zm2900.23 1299.29c-65.55,13.74 -133.81,17.86 -199.36,9.62 -71,-8.25 -133.8,-27.47 -193.88,-57.69 -60.08,-26.09 -117.44,-63.17 -166.59,-109.87 -51.89,-45.32 -98.32,-100.26 -136.55,-157.95 -54.62,-81.04 -101.05,-171.68 -131.09,-273.32 -32.76,-100.26 -51.88,-204.64 -60.08,-307.65 -10.92,-151.09 -8.19,-304.91 10.93,-461.48 16.39,-153.82 49.15,-303.54 103.78,-444.99 21.84,-71.43 49.14,-138.74 81.92,-206.02 32.77,-67.31 68.28,-129.11 114.7,-188.17 62.8,-82.41 131.08,-152.46 210.27,-210.13 76.47,-59.07 161.13,-105.76 251.25,-138.74 87.39,-34.32 180.23,-53.56 275.82,-57.67 98.32,-4.13 188.44,5.5 281.28,34.33 772.86,267.82 666.35,1245.72 568.03,1969.54 -19.11,157.93 -43.69,238.97 -95.57,383.19 -13.66,32.96 -27.31,65.93 -51.9,98.89 -24.57,41.2 -62.81,72.78 -101.04,94.76 -38.24,20.61 -81.93,28.85 -125.61,23.35 -54.63,-8.24 -109.24,-32.96 -158.4,-76.91 -51.88,-45.33 -90.12,-94.77 -117.43,-152.46 -49.16,56.32 -103.77,104.39 -166.59,144.22 -62.81,43.95 -125.61,70.04 -193.89,85.15zm19.12 -2329.37c19.12,8.24 35.49,8.24 49.16,0 13.64,-9.61 24.57,-20.61 30.04,-35.72 0,-15.1 0,-28.84 -5.47,-42.56 -5.46,-13.74 -19.12,-17.87 -40.97,-15.11 -24.57,0 -40.96,12.35 -49.15,37.07 -8.2,24.73 -2.73,42.58 16.39,56.32zm-666.35 754.02c-2.72,17.86 2.73,31.6 13.65,39.84 10.94,9.61 27.32,13.72 40.98,12.35 16.38,-1.37 30.04,-6.87 40.96,-17.85 10.92,-9.61 16.38,-26.1 16.38,-46.7 0,-13.73 5.47,-42.58 16.39,-83.78 10.92,-42.58 19.12,-70.04 24.57,-85.15 2.74,-10.99 8.19,-30.22 16.39,-59.06 8.2,-27.48 19.12,-56.31 30.04,-83.78 10.92,-28.85 21.84,-56.31 32.77,-82.41 10.92,-27.46 21.86,-45.33 32.78,-54.94 13.65,-13.74 30.04,-28.84 40.96,-45.32 8.2,-16.48 21.84,-31.59 35.49,-46.7 5.47,-12.37 30.04,-30.22 60.08,-53.56 32.78,-21.98 51.89,-37.09 65.55,-42.59 19.12,2.76 35.5,-1.37 43.69,-13.72 10.92,-12.37 16.39,-23.35 16.39,-38.46 0,-15.11 -5.47,-28.84 -16.39,-37.08 -8.19,-9.61 -24.57,-11 -40.96,-4.13 -10.92,2.76 -24.57,8.24 -43.69,17.87 -16.39,8.23 -32.78,17.85 -54.63,28.83 -19.11,12.36 -38.23,24.73 -54.61,35.71 -16.39,12.37 -24.58,21.98 -32.76,31.59 -13.67,12.37 -24.59,24.72 -30.04,39.83 -10.94,15.1 -21.86,30.21 -35.51,43.95 -10.92,12.37 -21.85,23.35 -27.32,34.34 -10.92,9.61 -19.11,21.97 -27.31,37.07 -10.92,16.5 -24.57,48.09 -40.96,92.03 -16.38,45.32 -35.49,92.03 -51.88,140.1 -16.38,49.44 -32.77,97.52 -43.69,141.46 -13.67,46.69 -24.59,79.67 -27.32,100.26zm518.88 245.86c-2.73,54.93 8.19,107.13 27.31,156.56 21.84,49.44 49.16,89.28 79.2,120.87 35.49,31.59 71,50.81 114.69,56.31 43.7,6.87 87.39,-5.5 131.08,-35.72 27.31,-19.22 54.62,-49.43 81.94,-87.89 27.3,-46.7 54.61,-97.52 76.45,-151.08 21.85,-54.94 30.04,-112.62 27.32,-171.68 0,-43.95 -8.2,-85.15 -24.59,-123.61 -16.38,-38.45 -35.49,-72.8 -65.53,-98.89 -27.32,-27.47 -57.36,-45.32 -90.12,-57.69 -35.51,-9.61 -71,-9.61 -109.24,2.76 -27.31,6.85 -60.08,26.09 -92.85,53.56 -27.31,28.83 -54.62,61.81 -76.47,98.88 -21.84,35.71 -40.96,74.17 -54.61,116.75 -13.66,42.57 -21.86,82.4 -24.58,120.87z"/>
   <path class="fil1" d="M19713.02 4470.51c49.16,-21.97 103.79,-35.71 161.14,-37.08 54.61,-1.37 109.24,5.5 163.85,21.98 54.61,19.22 101.04,48.06 142,89.28 57.36,54.93 101.04,124.98 122.9,207.39 40.97,163.43 -43.7,699.08 -57.35,900.97 -40.96,589.21 -30.04,1016.36 -27.31,1600.08 2.73,526.03 -324.97,708.7 -723.68,498.57 -223.95,-6.87 -355.03,190.91 -707.31,10.98 -592.62,-302.16 -751,-1222.38 -729.15,-1880.26 19.11,-494.44 608.99,-931.19 1073.24,-699.09 357.75,178.55 142,203.28 259.43,-259.58 51.89,-201.89 144.75,-369.45 322.24,-453.24zm-734.6 854.3c-49.16,130.47 226.67,4.11 87.39,-43.96 -27.31,-8.24 -73.74,15.11 -87.39,43.96zm-584.42 563.1c38.23,-8.24 38.23,-185.41 133.82,-320.01 163.85,-225.24 338.64,-148.33 335.89,-212.88 -2.72,-130.49 -303.12,4.12 -401.44,119.49 -16.37,24.71 -292.2,384.56 -92.84,413.4 10.92,1.38 16.39,1.38 24.57,0zm671.81 39.83c-314.06,104.39 -191.17,1036.97 144.73,888.64 223.95,-96.15 232.13,-936.71 -144.73,-888.64zm3257.97 -324.13c294.93,413.41 202.08,1237.49 111.96,1708.57 -68.27,333.76 -292.2,721.08 -598.07,311.78 -131.08,-178.54 2.74,-96.15 -253.97,19.24 -529.79,245.84 -1084.17,-434.02 -1056.86,-1064.44 30.04,-777.37 614.45,-1549.25 1376.38,-1280.06 172.04,60.44 303.13,152.46 420.56,304.91zm-789.23 -97.52c128.35,-85.15 -147.48,-120.86 -65.55,-13.73 13.66,21.97 43.7,26.1 65.55,13.73zm-726.43 656.52c103.79,50.82 144.75,-195.03 210.28,-322.76 103.78,-200.52 314.06,-249.98 319.52,-285.68 24.58,-144.21 -234.85,39.83 -292.21,105.75 -98.31,111.25 -229.39,320.02 -253.98,475.21 0,15.11 5.47,21.98 16.39,27.48zm513.42 335.12c278.54,576.85 800.15,-212.89 368.66,-409.29 -193.89,-89.27 -464.25,182.67 -374.13,396.92 0,0 5.47,12.37 5.47,12.37z"/>
   <path class="fil2" d="M3324.87 13076.57c111.96,-53.56 185.71,-173.06 221.2,-298.04 35.51,-252.71 19.12,-619.43 -2.73,-879.01 327.71,-38.46 617.19,-67.3 944.9,-72.8 8.2,379.08 -54.62,1163.31 382.32,1307.53 824.74,222.5 819.27,-122.24 873.9,-922.95 57.34,-1119.38 -131.1,-2013.5 -349.57,-3091.64 -243.05,-1149.59 -756.11,-786.55 -1660.39,-611.19 -802.52,155.64 -882.07,119.23 -1234.36,983.38 -382.32,937.83 -395.11,1844.42 -232.13,2836.19 30.89,188 62.82,372.19 152.94,545.25 38.22,59.07 68.26,90.65 120.16,138.72 111.96,94.78 251.24,137.35 385.05,145.59 142,9.62 284.02,-19.22 398.71,-81.03zm1004.98 -2093.15c-294.95,9.61 -573.5,24.72 -865.7,57.7 -62.81,-1275.95 964.38,-1804.72 972.19,-462.87 0.36,63.16 10.94,365.35 -24.57,392.81 -30.04,4.12 -54.61,8.25 -81.92,12.36zm6308.39 -1569.85c-35.51,-786.99 -163.86,-1318.51 -1004.98,-1200.4 -854.78,151.08 -908.8,979.8 -1037.74,1796.48 -165.99,1051.22 -63.96,1130.99 -256.71,10.98 -63.94,-371.59 -184.18,-1302.83 -486.09,-1513.55 -367.16,-256.25 -979.61,-116.72 -1256.22,276.08 -419.76,596.08 -365.29,1883.05 -404.18,2627.41 -34.82,666.15 -65.1,1630.04 688.19,1834.94 650.39,176.9 526.55,-678.6 617.18,-1171.56 144.22,-784.34 153.27,-705.8 98.32,-1528.65 -40.63,-608.29 77.72,69.02 120.16,249.97 72.24,307.99 223.73,1266.54 409.63,1442.12 373.92,353.18 761.92,-230.74 898.47,-579.6 155.67,-445 223.93,-999.87 308.59,-1472.34 -19.11,487.58 -158.39,2406.28 117.44,2734.54 466.97,482.08 1250.23,405.33 1310.83,-401.04 70.47,-937.9 -73.73,-2143.96 -122.89,-3105.38zm2190.18 1759.39c5.47,-255.47 90.12,-1792.35 98.32,-2038.19 5.45,-156.59 -8.2,-321.41 -51.89,-469.73 -30.04,-92.02 -81.94,-175.81 -144.74,-234.87 -84.66,-68.67 -193.89,-108.5 -300.4,-112.61 -267.63,-19.24 -775.58,-57.69 -939.43,222.5 -90.12,240.34 -170.69,1303.32 -188.44,2337.61 -17.73,1034.13 20.24,2039.8 161.12,2175.55 151.31,145.8 1084.49,199.27 1261.69,-247.23 95.87,-241.58 96.02,-1252.58 103.77,-1576.72 0.43,-17.84 0,-37.09 0,-56.31zm2277.57 351.61c305.87,-487.58 1084.18,-1580.85 1231.64,-2084.91 73.74,-333.74 153.28,-1021.75 -234.85,-1127.6 -321.89,-87.79 -966.69,54.66 -1373.65,38.46 -316.71,-12.62 -1107.93,-98.54 -1275.33,298.04 -105.67,250.32 -96.12,1007.63 185.7,1181.16 144.2,88.79 747.91,145.82 966.74,193.67 95.25,20.82 79.2,-4.13 -30.04,163.43 -606.27,869.4 -1286.95,1186.37 -1103.28,2402.17 86.67,573.8 447.53,593.46 882.08,686.73 442.08,94.88 944.88,-52.19 1398.22,-111.25 611.72,-78.29 841.68,-198.92 753.72,-983.39 -64.95,-579.35 -360.5,-665.06 -843.84,-672.99 -185.72,-3.05 -374.14,12.35 -557.11,16.48zm5079.49 -2131.61c-117.43,-325.5 -251.24,-563.1 -497.03,-778.75 -1084.17,-862.51 -2336.56,75.22 -2610.73,1440.76 -61.71,307.33 -92.87,638.65 -122.91,953.17 -46.41,569.99 -204.42,1876.81 346.83,2170.06 347.2,184.69 862.49,81 909.39,-471.1 21.36,-251.36 13.65,-576.84 19.12,-836.43 316.79,-32.95 603.52,-63.17 928.51,-60.43 -16.39,447.75 -144.75,1236.12 333.16,1354.23 592.62,116.74 762.94,-137.19 876.63,-799.35 140.26,-817.03 49.15,-2187.91 -182.97,-2972.16zm-1742.32 499.95c587.14,-951.81 771.83,71.55 729.15,674.36 -31.03,438.25 54.61,338.43 -344.09,331 -191.16,-3.55 -385.06,-5.5 -576.22,1.37 10.92,-391.43 32.76,-649.64 191.16,-1006.73zm5437.24 -1010.87c-150.2,-179.92 -357.76,-309.02 -568.03,-401.05 -314.07,-142.84 -644.52,-220.89 -983.14,-234.86 -226.65,-9.36 -450.6,13.74 -658.13,94.78 -909.41,380.43 -745.55,1183.9 -764.66,2106.87 -13.65,997.12 174.65,1153.74 376.87,2040.95 54.47,239.01 142,689.47 439.67,624.93 557.11,-103.02 1169.61,44.11 1630.35,-302.17 516.92,-388.51 707.53,-348.18 980.39,-1031.47 377.1,-944.27 161.12,-2137.08 -453.32,-2897.98zm-1359.99 747.16c592.6,1.37 759.19,596.08 783.76,1149.58 5.47,449.12 -30.04,1239.09 -600.8,1242.98 -234.85,1.59 -178.45,-160.52 -223.92,-403.8 -112.93,-604.14 -363.22,-1389.94 -10.94,-1961.29 16.39,-8.24 32.78,-17.86 51.9,-27.47zm4088.16 3369.07c223.92,-30.21 450.59,-79.65 652.68,-186.78 120.16,-59.06 232.13,-159.32 297.67,-276.06 120.16,-233.5 136.55,-630.41 -40.96,-802.1 -73.73,-76.91 -204.81,-103 -311.32,-98.89 -158.4,9.61 -311.33,78.28 -472.45,109.88 -106.51,27.47 -368.67,60.42 -450.61,-17.86 -27.3,-23.35 -19.1,-137.35 -16.37,-179.91 -2.73,-133.24 10.92,-270.58 13.64,-403.8 346.83,31.58 956.92,123.56 939.43,-445 -12.54,-407.95 -406.93,-414.53 -718.22,-461.49 -234.88,-35.43 -197.55,42.54 -182.97,-262.32 4.52,-94.81 -13.59,-364.73 122.89,-355.72 404.22,26.68 1069.67,458.19 1354.53,-173.06 165.72,-367.23 -19.32,-669.37 -393.24,-755.41 -622.85,-143.31 -2354.05,-546.62 -2343.13,572.74 2.73,858.4 -18.89,1501.21 -109.23,2359.6 -87.16,828.2 62.8,1263.57 846.58,1381.68 270.36,34.35 540.72,26.11 811.08,-5.5z"/>
   <path class="fil3" d="M10924.97 14547.54c-5.45,410.66 439.68,558.99 543.46,13.73 174.77,-646.9 658.74,-32.32 -98.31,686.72 -26.71,25.37 -54.63,50.82 -79.2,75.54 -324.98,285.69 -494.31,508.2 -319.51,1002.62 101.01,285.69 759.19,167.56 1018.62,188.17 352.29,42.58 640.69,127.63 608.99,-445 -31.1,-561.84 -697.1,-247.55 -636.3,-390.06 75.73,-177.48 210.32,-374.95 305.87,-596.08 226.7,-524.65 354.76,-1260.18 -270.36,-1486.07 -568.27,-205.36 -1045.94,263.7 -1073.26,950.43zm3528.34 -732.06c-1373.65,-1280.05 -2371.8,2064.6 -991.33,2689.23 471.09,213.15 981.3,-224.58 1166.1,-716.95 219.35,-584.4 267.64,-1512.17 -174.77,-1972.28zm-759.19 1850.04c-158.39,-270.56 -115.2,-708.23 -49.16,-1014.98 97.79,-454.12 406.28,-575.27 513.41,-232.11 144.11,461.67 68.27,1704.46 -464.25,1247.09zm3075 652.39c158.38,-659.25 -193.9,-598.82 -576.22,-571.35 458.79,-461.49 679.99,-712.83 543.44,-1443.5 -136.54,-563.12 -537.99,-869.4 -1035,-694.97 -669.07,281.56 -778.31,1355.6 -294.95,1326.77 30.04,-5.5 62.81,-11 95.59,-17.87 379.6,-114 81.88,-625.6 417.83,-600.19 335.83,25.4 142,523.28 -27.31,715.56 -395.99,402.43 -969.47,530.16 -772.86,1255.33 111.98,357.11 486.11,267.83 751.01,245.85 297.66,-17.85 365.92,31.16 644.49,32.97 144.74,0.93 199.36,-104.38 253.98,-248.6zm1832.43 -49.44c90.12,-82.41 174.79,-185.41 226.67,-300.78 84.65,-179.93 111.96,-392.82 101.04,-594.71 -16.39,-182.67 -70.25,-372.78 -172.04,-509.55 -81.16,-109.06 -193.9,-186.79 -314.06,-219.76 -229.4,-53.57 -382.33,-26.09 -606.25,65.93 8.18,-103 21.84,-204.65 35.49,-307.65 234.86,-21.98 447.87,0 677.27,-9.61 71,-4.13 152.92,-24.73 193.88,-89.28 57.36,-87.91 77.71,-207.37 79.2,-318.65 1.23,-90.63 -2.72,-184.04 -46.41,-259.58 -24.59,-38.46 -60.08,-67.29 -98.32,-82.39 -142,-43.96 -1164.73,-147.65 -1299.91,123.6 -129.71,260.28 -220.22,1157.14 -71,1372.08 192.14,276.74 895.2,-41.3 808.34,395.56 -93.37,469.59 -768.23,-199.58 -950.36,149.69 -314.88,603.88 297.67,847.43 693.66,869.41 262.16,5.49 532.52,-101.64 742.8,-284.31z"/>
   <path class="fil4" d="M9431.18 13638.31c243.04,15.11 239.51,256.07 365.93,427.14 102.96,139.33 278.55,248.59 415.1,344.74 -213,-93.39 -409.65,-177.98 -636.3,-177.17 -150.2,0.54 -303.52,0.14 -376.87,-185.42 -16.76,-42.42 -19.1,-72.8 -21.84,-118.12 0,-162.07 111.97,-292.54 253.98,-291.17z"/>
   <path class="fil5" d="M19622.91 14153.35c35.5,16.49 169.3,-14.05 218.47,-17.85 128.32,-9.92 169.14,16.32 281.28,32.96 341.2,50.64 439.56,-454.3 161.14,-568.61 -123.02,-50.5 -237.21,15.39 -319.52,131.85 -78.81,111.52 -109.69,163.04 -204.82,263.71 -35.94,38.03 -120.16,109.87 -136.55,157.94z"/>
   <path class="fil5" d="M9584.1 16111.89c-95.58,134.61 -147.56,319.33 -341.36,298.04 -281.35,-30.89 -330.8,-491.53 -57.35,-576.84 100.67,-31.41 232.15,16.15 338.63,23.35 218.49,14.76 472.45,-34.35 685.47,-109.88 -155.67,68.68 -434.58,165.83 -554.38,282.94 -24.91,24.35 -46.42,49.43 -71.01,82.39z"/>
   <path class="fil4" d="M20007.97 16007.52c87.39,155.19 144.66,367.3 349.56,344.73 281.19,-30.98 330.14,-490.74 60.07,-572.73 -177.79,-53.97 -225.21,105.44 -521.59,-50.82 -99.62,-52.52 -199.36,-116.74 -300.4,-171.68 38.23,39.83 43.86,43.74 87.37,76.92 125.79,95.89 240.34,226.62 324.99,373.58z"/>
   <path class="fil6" d="M9586.83 14833.21c-308.59,72.8 -486.5,122.99 -764.64,302.17 -120.56,77.65 -248.22,130.13 -374.15,10.98 -242.73,-229.69 8.38,-688.31 327.72,-445 136.71,104.17 171.97,154.89 346.82,167.56 128.29,9.29 335.9,-17.85 464.25,-35.71z"/>
   <path class="fil6" d="M20174.56 14949.96c-92.86,42.57 -57.34,24.81 19.12,20.6 172.04,-9.51 401.55,-8.42 554.36,82.41 117.54,69.85 221.29,163.55 368.68,72.78 254.04,-156.43 141.68,-595.11 -144.73,-543.88 -120.49,21.54 -207.38,155.5 -327.72,227.99 -141.84,85.43 -316.78,115.37 -469.71,140.1z"/>
  </g>
 </g>
</svg>
